<svg width="81" height="80" viewBox="0 0 81 80" fill="none" xmlns="http://www.w3.org/2000/svg">
<rect x="0.21875" width="80" height="80" rx="18" fill="black" fill-opacity="0.04"/>
<path d="M23.5686 36C28.0906 36 32.9185 37.1243 32.9185 39.9459C32.9185 42.7784 28.0906 44 23.5686 44C19.0466 44 14.2188 42.8757 14.2188 40.0541C14.2188 37.2216 19.0466 36 23.5686 36ZM23.5905 42.4649C25.6002 42.4649 28.6149 41.9027 28.6149 40C28.6149 38.0973 25.6002 37.5351 23.5905 37.5351H23.5468C21.537 37.5351 18.5223 38.0973 18.5223 40C18.5223 41.9027 21.537 42.4649 23.5468 42.4649H23.5905Z" fill="black"/>
<path d="M47.6112 36.2378C47.6439 36.227 47.6767 36.2162 47.7095 36.2162H52.2097C52.439 36.2162 52.5155 36.5081 52.3189 36.6162L44.673 40.7784C44.6074 40.8108 44.5637 40.8865 44.5637 40.9622V43.5676C44.5637 43.6865 44.4654 43.7838 44.3453 43.7838H40.5551C40.4349 43.7838 40.3366 43.6865 40.3366 43.5676V40.9622C40.3366 40.8865 40.2929 40.8108 40.2274 40.7784L32.5924 36.6162C32.3958 36.5081 32.4723 36.2162 32.6907 36.2162H37.1909C37.2237 36.2162 37.2673 36.227 37.3001 36.2378L42.3464 38.9946C42.412 39.027 42.4884 39.027 42.554 38.9946L47.6112 36.2378Z" fill="black"/>
<path d="M53.745 36.4324C53.745 36.3135 53.8324 36.2162 53.9525 36.2162H57.6881C57.7973 36.2162 57.8956 36.3135 57.8956 36.4324V42.0108C57.8956 42.1297 57.9939 42.227 58.1141 42.227H66.0112C66.1314 42.227 66.2187 42.3243 66.2187 42.4432V43.5676C66.2187 43.6865 66.1314 43.7838 66.0112 43.7838H53.9525C53.8324 43.7838 53.745 43.6865 53.745 43.5676V36.4324Z" fill="black"/>
</svg>
