<svg width="37" height="37" viewBox="0 0 37 37" fill="none" xmlns="http://www.w3.org/2000/svg">
    <style>
        path {
            fill: var(--ifm-font-color-base);
        }
    </style>
    <path d="M10.8469 29.3442C10.3149 29.3442 9.87959 28.9089 9.87959 28.3769C9.87959 27.8449 10.3149 27.4097 10.8469 27.4097C11.3788 27.4097 11.8141 27.8449 11.8141 28.3769C11.8141 28.9089 11.3788 29.3442 10.8469 29.3442ZM9.87959 35.6314C9.87959 35.0994 10.3149 34.6641 10.8469 34.6641C11.3788 34.6641 11.8141 35.0994 11.8141 35.6314C11.8141 36.1634 11.3788 36.5986 10.8469 36.5986C10.3149 36.5986 9.87959 36.1634 9.87959 35.6314ZM9.87959 30.7951C9.87959 30.2631 10.3149 29.8278 10.8469 29.8278C11.3788 29.8278 11.8141 30.2631 11.8141 30.7951C11.8141 31.3271 11.3788 31.7623 10.8469 31.7623C10.3149 31.7623 9.87959 31.3271 9.87959 30.7951ZM12.2977 33.2132C12.2977 32.6812 12.733 32.246 13.265 32.246C13.797 32.246 14.2323 32.6812 14.2323 33.2132C14.2323 33.7452 13.797 34.1805 13.265 34.1805C12.733 34.1805 12.2977 33.7452 12.2977 33.2132ZM12.2977 30.7951C12.2977 30.2631 12.733 29.8278 13.265 29.8278C13.797 29.8278 14.2323 30.2631 14.2323 30.7951C14.2323 31.3271 13.797 31.7623 13.265 31.7623C12.733 31.7623 12.2977 31.3271 12.2977 30.7951ZM12.2977 28.3769C12.2977 27.8449 12.733 27.4097 13.265 27.4097C13.797 27.4097 14.2323 27.8449 14.2323 28.3769C14.2323 28.9089 13.797 29.3442 13.265 29.3442C12.733 29.3442 12.2977 28.9089 12.2977 28.3769Z"/>
    <path d="M26.2276 29.3442C26.7596 29.3442 27.1949 28.9089 27.1949 28.3769C27.1949 27.8449 26.7596 27.4097 26.2276 27.4097C25.6956 27.4097 25.2603 27.8449 25.2603 28.3769C25.2603 28.9089 25.6956 29.3442 26.2276 29.3442ZM27.1949 35.6314C27.1949 35.0994 26.7596 34.6641 26.2276 34.6641C25.6956 34.6641 25.2603 35.0994 25.2603 35.6314C25.2603 36.1634 25.6956 36.5986 26.2276 36.5986C26.7596 36.5986 27.1949 36.1634 27.1949 35.6314ZM27.1949 30.7951C27.1949 30.2631 26.7596 29.8278 26.2276 29.8278C25.6956 29.8278 25.2603 30.2631 25.2603 30.7951C25.2603 31.3271 25.6956 31.7623 26.2276 31.7623C26.7596 31.7623 27.1949 31.3271 27.1949 30.7951ZM24.7767 33.2132C24.7767 32.6812 24.3414 32.246 23.8094 32.246C23.2775 32.246 22.8422 32.6812 22.8422 33.2132C22.8422 33.7452 23.2775 34.1805 23.8094 34.1805C24.3414 34.1805 24.7767 33.7452 24.7767 33.2132ZM24.7767 30.7951C24.7767 30.2631 24.3414 29.8278 23.8094 29.8278C23.2775 29.8278 22.8422 30.2631 22.8422 30.7951C22.8422 31.3271 23.2775 31.7623 23.8094 31.7623C24.3414 31.7623 24.7767 31.3271 24.7767 30.7951ZM24.7767 28.3769C24.7767 27.8449 24.3414 27.4097 23.8094 27.4097C23.2775 27.4097 22.8422 27.8449 22.8422 28.3769C22.8422 28.9089 23.2775 29.3442 23.8094 29.3442C24.3414 29.3442 24.7767 28.9089 24.7767 28.3769Z"/>
    <path d="M29.4868 24.28C29.4868 24.812 29.0515 25.2472 28.5195 25.2472C27.9875 25.2472 27.5522 24.812 27.5522 24.28C27.5522 23.748 27.9875 23.3127 28.5195 23.3127C29.0515 23.3127 29.4868 23.748 29.4868 24.28ZM35.7739 25.2472C35.2419 25.2472 34.8067 24.812 34.8067 24.28C34.8067 23.748 35.2419 23.3127 35.7739 23.3127C36.3059 23.3127 36.7412 23.748 36.7412 24.28C36.7412 24.812 36.3059 25.2472 35.7739 25.2472ZM30.9376 25.2472C30.4056 25.2472 29.9704 24.812 29.9704 24.28C29.9704 23.748 30.4056 23.3127 30.9376 23.3127C31.4696 23.3127 31.9049 23.748 31.9049 24.28C31.9049 24.812 31.4696 25.2472 30.9376 25.2472ZM33.3558 22.8291C32.8238 22.8291 32.3885 22.3938 32.3885 21.8618C32.3885 21.3298 32.8238 20.8946 33.3558 20.8946C33.8878 20.8946 34.323 21.3298 34.323 21.8618C34.323 22.3938 33.8878 22.8291 33.3558 22.8291ZM30.9376 22.8291C30.4056 22.8291 29.9704 22.3938 29.9704 21.8618C29.9704 21.3298 30.4056 20.8946 30.9376 20.8946C31.4696 20.8946 31.9049 21.3298 31.9049 21.8618C31.9049 22.3938 31.4696 22.8291 30.9376 22.8291ZM28.5195 22.8291C27.9875 22.8291 27.5522 22.3938 27.5522 21.8618C27.5522 21.3298 27.9875 20.8946 28.5195 20.8946C29.0515 20.8946 29.4868 21.3298 29.4868 21.8618C29.4868 22.3938 29.0515 22.8291 28.5195 22.8291Z"/>
    <path d="M29.4868 12.5093C29.4868 11.9773 29.0515 11.5421 28.5195 11.5421C27.9875 11.5421 27.5522 11.9773 27.5522 12.5093C27.5522 13.0413 27.9875 13.4766 28.5195 13.4766C29.0515 13.4766 29.4868 13.0413 29.4868 12.5093ZM35.7739 11.5421C35.2419 11.5421 34.8067 11.9773 34.8067 12.5093C34.8067 13.0413 35.2419 13.4766 35.7739 13.4766C36.3059 13.4766 36.7412 13.0413 36.7412 12.5093C36.7412 11.9773 36.3059 11.5421 35.7739 11.5421ZM30.9376 11.5421C30.4056 11.5421 29.9704 11.9773 29.9704 12.5093C29.9704 13.0413 30.4056 13.4766 30.9376 13.4766C31.4696 13.4766 31.9049 13.0413 31.9049 12.5093C31.9049 11.9773 31.4696 11.5421 30.9376 11.5421ZM33.3558 13.9602C32.8238 13.9602 32.3885 14.3955 32.3885 14.9275C32.3885 15.4595 32.8238 15.8947 33.3558 15.8947C33.8878 15.8947 34.323 15.4595 34.323 14.9275C34.323 14.3955 33.8878 13.9602 33.3558 13.9602ZM30.9376 13.9602C30.4056 13.9602 29.9704 14.3955 29.9704 14.9275C29.9704 15.4595 30.4056 15.8947 30.9376 15.8947C31.4696 15.8947 31.9049 15.4595 31.9049 14.9275C31.9049 14.3955 31.4696 13.9602 30.9376 13.9602ZM28.5195 13.9602C27.9875 13.9602 27.5522 14.3955 27.5522 14.9275C27.5522 15.4595 27.9875 15.8947 28.5195 15.8947C29.0515 15.8947 29.4868 15.4595 29.4868 14.9275C29.4868 14.3955 29.0515 13.9602 28.5195 13.9602Z"/>
    <path d="M10.8469 7.44512C10.3149 7.44512 9.87959 7.88038 9.87959 8.41238C9.87959 8.94437 10.3149 9.37964 10.8469 9.37964C11.3788 9.37964 11.8141 8.94437 11.8141 8.41238C11.8141 7.88038 11.3788 7.44512 10.8469 7.44512ZM9.87959 1.15793C9.87959 1.68993 10.3149 2.12519 10.8469 2.12519C11.3788 2.12519 11.8141 1.68993 11.8141 1.15793C11.8141 0.62594 11.3788 0.190674 10.8469 0.190674C10.3149 0.190674 9.87959 0.62594 9.87959 1.15793ZM9.87959 5.99423C9.87959 6.52622 10.3149 6.96149 10.8469 6.96149C11.3788 6.96149 11.8141 6.52622 11.8141 5.99423C11.8141 5.46224 11.3788 5.02697 10.8469 5.02697C10.3149 5.02697 9.87959 5.46224 9.87959 5.99423ZM12.2977 3.57608C12.2977 4.10807 12.733 4.54334 13.265 4.54334C13.797 4.54334 14.2323 4.10807 14.2323 3.57608C14.2323 3.04409 13.797 2.60882 13.265 2.60882C12.733 2.60882 12.2977 3.04409 12.2977 3.57608ZM12.2977 5.99423C12.2977 6.52622 12.733 6.96149 13.265 6.96149C13.797 6.96149 14.2323 6.52622 14.2323 5.99423C14.2323 5.46224 13.797 5.02697 13.265 5.02697C12.733 5.02697 12.2977 5.46224 12.2977 5.99423ZM12.2977 8.41238C12.2977 8.94437 12.733 9.37964 13.265 9.37964C13.797 9.37964 14.2323 8.94437 14.2323 8.41238C14.2323 7.88038 13.797 7.44512 13.265 7.44512C12.733 7.44512 12.2977 7.88038 12.2977 8.41238Z"/>
    <path d="M26.2276 7.44512C26.7596 7.44512 27.1949 7.88038 27.1949 8.41238C27.1949 8.94437 26.7596 9.37964 26.2276 9.37964C25.6956 9.37964 25.2603 8.94437 25.2603 8.41238C25.2603 7.88038 25.6956 7.44512 26.2276 7.44512ZM27.1949 1.15793C27.1949 1.68993 26.7596 2.12519 26.2276 2.12519C25.6956 2.12519 25.2603 1.68993 25.2603 1.15793C25.2603 0.62594 25.6956 0.190674 26.2276 0.190674C26.7596 0.190674 27.1949 0.62594 27.1949 1.15793ZM27.1949 5.99423C27.1949 6.52622 26.7596 6.96149 26.2276 6.96149C25.6956 6.96149 25.2603 6.52622 25.2603 5.99423C25.2603 5.46224 25.6956 5.02697 26.2276 5.02697C26.7596 5.02697 27.1949 5.46224 27.1949 5.99423ZM24.7767 3.57608C24.7767 4.10807 24.3414 4.54334 23.8094 4.54334C23.2775 4.54334 22.8422 4.10807 22.8422 3.57608C22.8422 3.04409 23.2775 2.60882 23.8094 2.60882C24.3414 2.60882 24.7767 3.04409 24.7767 3.57608ZM24.7767 5.99423C24.7767 6.52622 24.3414 6.96149 23.8094 6.96149C23.2775 6.96149 22.8422 6.52622 22.8422 5.99423C22.8422 5.46224 23.2775 5.02697 23.8094 5.02697C24.3414 5.02697 24.7767 5.46224 24.7767 5.99423ZM24.7767 8.41238C24.7767 8.94437 24.3414 9.37964 23.8094 9.37964C23.2775 9.37964 22.8422 8.94437 22.8422 8.41238C22.8422 7.88038 23.2775 7.44512 23.8094 7.44512C24.3414 7.44512 24.7767 7.88038 24.7767 8.41238Z"/>
    <path d="M7.58782 24.28C7.58782 24.812 8.02308 25.2472 8.55508 25.2472C9.08707 25.2472 9.52234 24.812 9.52234 24.28C9.52234 23.748 9.08707 23.3127 8.55508 23.3127C8.02308 23.3127 7.58782 23.748 7.58782 24.28ZM1.30063 25.2472C1.83263 25.2472 2.26789 24.812 2.26789 24.28C2.26789 23.748 1.83263 23.3127 1.30063 23.3127C0.76864 23.3127 0.333374 23.748 0.333374 24.28C0.333374 24.812 0.76864 25.2472 1.30063 25.2472ZM6.13693 25.2472C6.66892 25.2472 7.10419 24.812 7.10419 24.28C7.10419 23.748 6.66892 23.3127 6.13693 23.3127C5.60494 23.3127 5.16967 23.748 5.16967 24.28C5.16967 24.812 5.60494 25.2472 6.13693 25.2472ZM3.71878 22.8291C4.25077 22.8291 4.68604 22.3938 4.68604 21.8618C4.68604 21.3298 4.25077 20.8946 3.71878 20.8946C3.18679 20.8946 2.75152 21.3298 2.75152 21.8618C2.75152 22.3938 3.18679 22.8291 3.71878 22.8291ZM6.13693 22.8291C6.66892 22.8291 7.10419 22.3938 7.10419 21.8618C7.10419 21.3298 6.66892 20.8946 6.13693 20.8946C5.60494 20.8946 5.16967 21.3298 5.16967 21.8618C5.16967 22.3938 5.60494 22.8291 6.13693 22.8291ZM8.55508 22.8291C9.08707 22.8291 9.52234 22.3938 9.52234 21.8618C9.52234 21.3298 9.08707 20.8946 8.55508 20.8946C8.02308 20.8946 7.58782 21.3298 7.58782 21.8618C7.58782 22.3938 8.02308 22.8291 8.55508 22.8291Z"/>
    <path d="M7.58782 12.5093C7.58782 11.9773 8.02308 11.5421 8.55508 11.5421C9.08707 11.5421 9.52234 11.9773 9.52234 12.5093C9.52234 13.0413 9.08707 13.4766 8.55508 13.4766C8.02308 13.4766 7.58782 13.0413 7.58782 12.5093ZM1.30063 11.5421C1.83263 11.5421 2.26789 11.9773 2.26789 12.5093C2.26789 13.0413 1.83263 13.4766 1.30063 13.4766C0.76864 13.4766 0.333374 13.0413 0.333374 12.5093C0.333374 11.9773 0.76864 11.5421 1.30063 11.5421ZM6.13693 11.5421C6.66892 11.5421 7.10419 11.9773 7.10419 12.5093C7.10419 13.0413 6.66892 13.4766 6.13693 13.4766C5.60494 13.4766 5.16967 13.0413 5.16967 12.5093C5.16967 11.9773 5.60494 11.5421 6.13693 11.5421ZM3.71878 13.9602C4.25077 13.9602 4.68604 14.3955 4.68604 14.9275C4.68604 15.4595 4.25077 15.8947 3.71878 15.8947C3.18679 15.8947 2.75152 15.4595 2.75152 14.9275C2.75152 14.3955 3.18679 13.9602 3.71878 13.9602ZM6.13693 13.9602C6.66892 13.9602 7.10419 14.3955 7.10419 14.9275C7.10419 15.4595 6.66892 15.8947 6.13693 15.8947C5.60494 15.8947 5.16967 15.4595 5.16967 14.9275C5.16967 14.3955 5.60494 13.9602 6.13693 13.9602ZM8.55508 13.9602C9.08707 13.9602 9.52234 14.3955 9.52234 14.9275C9.52234 15.4595 9.08707 15.8947 8.55508 15.8947C8.02308 15.8947 7.58782 15.4595 7.58782 14.9275C7.58782 14.3955 8.02308 13.9602 8.55508 13.9602Z"/>
</svg>
